<svg width="24" height="22" viewBox="0 0 24 22" fill="none" xmlns="http://www.w3.org/2000/svg">
<g clip-path="url(#clip0_19_875)">
<path d="M13 6.44444H11V10H7V11.7778H11V15.3333H13V11.7778H17V10H13V6.44444ZM12 2C6.48 2 2 5.98222 2 10.8889C2 15.7956 6.48 19.7778 12 19.7778C17.52 19.7778 22 15.7956 22 10.8889C22 5.98222 17.52 2 12 2ZM12 18C7.59 18 4 14.8089 4 10.8889C4 6.96889 7.59 3.77778 12 3.77778C16.41 3.77778 20 6.96889 20 10.8889C20 14.8089 16.41 18 12 18Z" fill="#9747FF"/>
</g>
<defs>
<clipPath id="clip0_19_875">
<rect width="24" height="21.3333" fill="white" transform="translate(0 0.222168)"/>
</clipPath>
</defs>
</svg>
