<svg width="24" height="31" viewBox="0 0 24 31" fill="none" xmlns="http://www.w3.org/2000/svg">
<path d="M2.67737e-07 3.87491V30.0306C-0.000126788 30.1988 0.0449691 30.3641 0.130849 30.5104C0.216729 30.6566 0.340433 30.7786 0.489784 30.8644C0.639134 30.9503 0.808982 30.9969 0.98261 30.9999C1.15624 31.0028 1.32766 30.9619 1.48 30.8811L12 25.3206L22.52 30.8811C22.6723 30.9619 22.8438 31.0028 23.0174 30.9999C23.191 30.9969 23.3609 30.9503 23.5102 30.8644C23.6596 30.7786 23.7833 30.6566 23.8692 30.5104C23.955 30.3641 24.0001 30.1988 24 30.0306V3.87491C24 2.84722 23.5786 1.86162 22.8284 1.13494C22.0783 0.408249 21.0609 0 20 0L4 0C2.93913 0 1.92172 0.408249 1.17157 1.13494C0.421427 1.86162 2.67737e-07 2.84722 2.67737e-07 3.87491Z" fill="#9747FF"/>
</svg>
