<svg width="24" height="31" viewBox="0 0 24 31" fill="none" xmlns="http://www.w3.org/2000/svg">
<path d="M0 3.87506C0 2.84733 0.421427 1.86169 1.17157 1.13498C1.92172 0.408264 2.93913 0 4 0L20 0C21.0609 0 22.0783 0.408264 22.8284 1.13498C23.5786 1.86169 24 2.84733 24 3.87506V30.0317C23.9999 30.207 23.9508 30.3789 23.8578 30.5292C23.7648 30.6795 23.6315 30.8026 23.472 30.8853C23.3125 30.968 23.1329 31.0073 22.9522 30.9989C22.7715 30.9905 22.5966 30.9348 22.446 30.8377L12 25.3836L1.554 30.8377C1.40341 30.9348 1.22846 30.9905 1.04778 30.9989C0.867105 31.0073 0.687466 30.968 0.527999 30.8853C0.368532 30.8026 0.235208 30.6795 0.142228 30.5292C0.0492481 30.3789 9.34408e-05 30.207 0 30.0317V3.87506ZM4 1.93753C3.46957 1.93753 2.96086 2.14166 2.58579 2.50502C2.21071 2.86838 2 3.3612 2 3.87506V28.2221L11.446 23.4131C11.6101 23.3073 11.8029 23.2509 12 23.2509C12.1971 23.2509 12.3899 23.3073 12.554 23.4131L22 28.2221V3.87506C22 3.3612 21.7893 2.86838 21.4142 2.50502C21.0391 2.14166 20.5304 1.93753 20 1.93753H4Z" fill="#9747FF"/>
</svg>
