<svg width="30" height="30" viewBox="0 0 30 30" fill="none" xmlns="http://www.w3.org/2000/svg">
<g clip-path="url(#clip0_16_567)">
<rect width="30" height="30" fill="white"/>
<path d="M15 28.125C11.519 28.125 8.18064 26.7422 5.71922 24.2808C3.25781 21.8194 1.875 18.481 1.875 15C1.875 11.519 3.25781 8.18064 5.71922 5.71922C8.18064 3.25781 11.519 1.875 15 1.875C18.481 1.875 21.8194 3.25781 24.2808 5.71922C26.7422 8.18064 28.125 11.519 28.125 15C28.125 18.481 26.7422 21.8194 24.2808 24.2808C21.8194 26.7422 18.481 28.125 15 28.125ZM15 30C18.9782 30 22.7936 28.4196 25.6066 25.6066C28.4196 22.7936 30 18.9782 30 15C30 11.0218 28.4196 7.20644 25.6066 4.3934C22.7936 1.58035 18.9782 0 15 0C11.0218 0 7.20644 1.58035 4.3934 4.3934C1.58035 7.20644 0 11.0218 0 15C0 18.9782 1.58035 22.7936 4.3934 25.6066C7.20644 28.4196 11.0218 30 15 30Z" fill="#9747FF"/>
<path d="M20.5691 9.31866L20.5316 9.35992L14.0198 17.6568L10.0954 13.7305C9.82881 13.4821 9.47623 13.3469 9.11191 13.3533C8.7476 13.3598 8.4 13.5073 8.14235 13.765C7.8847 14.0226 7.73712 14.3702 7.73069 14.7346C7.72426 15.0989 7.85949 15.4515 8.10789 15.718L13.0691 20.6812C13.2028 20.8146 13.3619 20.9197 13.5371 20.9903C13.7123 21.0608 13.8999 21.0954 14.0887 21.0919C14.2775 21.0884 14.4636 21.0469 14.6361 20.9699C14.8085 20.8929 14.9636 20.7819 15.0923 20.6437L22.5773 11.2874C22.8321 11.0199 22.9715 10.6628 22.9652 10.2934C22.9589 9.92399 22.8075 9.57188 22.5436 9.31322C22.2798 9.05455 21.9247 8.91012 21.5553 8.91114C21.1858 8.91216 20.8315 9.05855 20.5691 9.31866Z" fill="#9747FF"/>
</g>
<defs>
<clipPath id="clip0_16_567">
<rect width="30" height="30" fill="white"/>
</clipPath>
</defs>
</svg>
