<svg width="32" height="32" viewBox="0 0 32 32" fill="none" xmlns="http://www.w3.org/2000/svg">
<path d="M22.6667 12.2266C22.4169 11.9783 22.0789 11.8389 21.7267 11.8389C21.3744 11.8389 21.0365 11.9783 20.7867 12.2266L16 16.9466L11.28 12.2266C11.0302 11.9783 10.6923 11.8389 10.34 11.8389C9.98777 11.8389 9.64983 11.9783 9.40001 12.2266C9.27504 12.3505 9.17585 12.498 9.10816 12.6605C9.04047 12.823 9.00562 12.9972 9.00562 13.1733C9.00562 13.3493 9.04047 13.5235 9.10816 13.686C9.17585 13.8485 9.27504 13.996 9.40001 14.1199L15.0533 19.7733C15.1773 19.8982 15.3248 19.9974 15.4872 20.0651C15.6497 20.1328 15.824 20.1677 16 20.1677C16.176 20.1677 16.3503 20.1328 16.5128 20.0651C16.6753 19.9974 16.8227 19.8982 16.9467 19.7733L22.6667 14.1199C22.7916 13.996 22.8908 13.8485 22.9585 13.686C23.0262 13.5235 23.0611 13.3493 23.0611 13.1733C23.0611 12.9972 23.0262 12.823 22.9585 12.6605C22.8908 12.498 22.7916 12.3505 22.6667 12.2266Z" fill="#B6B6B6"/>
</svg>
