<svg width="510" height="483" viewBox="0 0 510 483" fill="none" xmlns="http://www.w3.org/2000/svg">
<path d="M242.031 2.53323C239.097 3.86656 235.097 6.66656 233.097 8.79989C231.097 10.9332 216.297 39.4666 200.164 72.1332C168.164 136.933 166.697 139.2 154.297 142.533C151.231 143.333 121.097 147.867 87.3639 152.667C53.6305 157.467 22.9639 162.267 19.0972 163.333C11.8972 165.467 3.8972 172.8 1.36386 179.467C-0.902805 185.2 -0.236138 196.933 2.56386 202.4C4.03053 205.2 25.8972 227.467 54.0305 254.533C83.0972 282.667 103.897 303.867 105.497 306.8C106.964 309.867 108.031 314.667 108.031 318.8C108.031 322.667 103.231 353.6 97.3639 387.6C91.4972 421.733 86.6972 451.467 86.6972 453.733C86.6972 458.8 91.0972 468.8 95.0972 473.067C101.497 480 113.364 483.6 122.564 481.467C125.631 480.8 154.431 466.4 186.564 449.6C218.697 432.667 247.231 418.4 249.897 418L254.697 417.067V208.533V-0.000106523H251.097C248.964 -0.000106523 244.964 1.19989 242.031 2.53323Z" fill="#9747FF"/>
<path d="M267.697 2.86672C270.631 4.20006 274.631 7.00006 276.631 9.13339C278.631 11.2667 293.431 39.8001 309.564 72.4667C341.564 137.267 343.031 139.533 355.431 142.867C358.497 143.667 388.631 148.2 422.364 153C456.097 157.8 486.764 162.6 490.631 163.667C497.831 165.8 505.831 173.133 508.364 179.8C510.631 185.533 509.964 197.267 507.164 202.733C505.697 205.533 483.831 227.8 455.697 254.867C426.631 283 405.831 304.2 404.231 307.133C402.764 310.2 401.697 315 401.697 319.133C401.697 323 406.497 353.933 412.364 387.933C418.231 422.067 423.031 451.8 423.031 454.067C423.031 459.133 418.631 469.133 414.631 473.4C408.231 480.333 396.364 483.933 387.164 481.8C384.097 481.133 355.297 466.733 323.164 449.933C291.031 433 262.497 418.733 259.831 418.333L255.031 417.4V208.867V0.33339H258.631C260.764 0.33339 264.764 1.53339 267.697 2.86672Z" fill="#E3CDFF"/>
</svg>
