<svg width="50" height="50" viewBox="0 0 50 50" fill="none" xmlns="http://www.w3.org/2000/svg">
<path d="M35.417 22.9169H19.6045L26.4795 16.0627C26.8718 15.6704 27.0922 15.1384 27.0922 14.5836C27.0922 14.0288 26.8718 13.4967 26.4795 13.1044C26.0872 12.7121 25.5552 12.4917 25.0004 12.4917C24.4456 12.4917 23.9135 12.7121 23.5212 13.1044L13.1045 23.5211C12.9149 23.7192 12.7662 23.9528 12.667 24.2086C12.4586 24.7158 12.4586 25.2847 12.667 25.7919C12.7662 26.0476 12.9149 26.2813 13.1045 26.4794L23.5212 36.8961C23.7149 37.0913 23.9453 37.2463 24.1992 37.3521C24.453 37.4578 24.7253 37.5123 25.0004 37.5123C25.2754 37.5123 25.5477 37.4578 25.8016 37.3521C26.0554 37.2463 26.2858 37.0913 26.4795 36.8961C26.6748 36.7024 26.8298 36.472 26.9355 36.2181C27.0413 35.9642 27.0958 35.6919 27.0958 35.4169C27.0958 35.1419 27.0413 34.8696 26.9355 34.6157C26.8298 34.3618 26.6748 34.1314 26.4795 33.9377L19.6045 27.0836H35.417C35.9696 27.0836 36.4995 26.8641 36.8902 26.4734C37.2809 26.0827 37.5004 25.5528 37.5004 25.0002C37.5004 24.4477 37.2809 23.9178 36.8902 23.5271C36.4995 23.1364 35.9696 22.9169 35.417 22.9169Z" fill="#B6B6B6"/>
</svg>
