<svg width="28" height="28" viewBox="0 0 28 28" fill="none" xmlns="http://www.w3.org/2000/svg">
<path d="M10.7692 27.0001V19.9905C10.7692 19.5005 11.3077 19.0006 11.8462 19.0006H16.1538C16.6923 19.0006 17.2308 19.5005 17.2308 20.0005V27.0001C17.2308 27.2653 17.3442 27.5196 17.5462 27.7071C17.7482 27.8947 18.0221 28 18.3077 28H26.9231C27.2087 28 27.4826 27.8947 27.6846 27.7071C27.8865 27.5196 28 27.2653 28 27.0001V13.001C28.0003 12.8696 27.9726 12.7394 27.9187 12.6179C27.8647 12.4964 27.7855 12.386 27.6855 12.293L24.7692 9.58718V3.0016C24.7692 2.7364 24.6558 2.48206 24.4538 2.29453C24.2518 2.10701 23.9779 2.00166 23.6923 2.00166H21.5385C21.2528 2.00166 20.9789 2.10701 20.777 2.29453C20.575 2.48206 20.4615 2.7364 20.4615 3.0016V5.58743L14.7625 0.293769C14.6624 0.200648 14.5436 0.126767 14.4127 0.0763576C14.2819 0.0259479 14.1417 0 14 0C13.8583 0 13.7181 0.0259479 13.5873 0.0763576C13.4564 0.126767 13.3376 0.200648 13.2375 0.293769L0.314463 12.293C0.214521 12.386 0.135306 12.4964 0.081349 12.6179C0.0273915 12.7394 -0.00025103 12.8696 1.71768e-06 13.001V27.0001C1.71768e-06 27.2653 0.113463 27.5196 0.315425 27.7071C0.517387 27.8947 0.791307 28 1.07692 28H9.69231C9.97793 28 10.2518 27.8947 10.4538 27.7071C10.6558 27.5196 10.7692 27.2653 10.7692 27.0001Z" fill="#9747FF"/>
</svg>
