<svg width="59" height="59" viewBox="0 0 59 59" fill="none" xmlns="http://www.w3.org/2000/svg">
<path d="M29.5 4.91666C24.732 4.92572 20.0696 6.32113 16.0805 8.93293C12.0915 11.5447 8.9481 15.2602 7.03317 19.6268C5.11824 23.9933 4.51444 28.8225 5.29533 33.5261C6.07622 38.2298 8.20809 42.6048 11.4313 46.1183C13.7333 48.6137 16.5273 50.6051 19.637 51.9672C22.7468 53.3293 26.105 54.0325 29.5 54.0325C32.895 54.0325 36.2532 53.3293 39.363 51.9672C42.4728 50.6051 45.2667 48.6137 47.5688 46.1183C50.792 42.6048 52.9238 38.2298 53.7047 33.5261C54.4856 28.8225 53.8818 23.9933 51.9669 19.6268C50.0519 15.2602 46.9085 11.5447 42.9195 8.93293C38.9305 6.32113 34.268 4.92572 29.5 4.91666ZM29.5 49.1667C24.4075 49.1589 19.5165 47.1761 15.8563 43.6354C16.9675 40.9301 18.858 38.6162 21.2874 36.9878C23.7167 35.3594 26.5754 34.4899 29.5 34.4899C32.4247 34.4899 35.2833 35.3594 37.7127 36.9878C40.1421 38.6162 42.0325 40.9301 43.1438 43.6354C39.4835 47.1761 34.5925 49.1589 29.5 49.1667ZM24.5834 24.5833C24.5834 23.6109 24.8717 22.6603 25.412 21.8518C25.9522 21.0432 26.7201 20.413 27.6185 20.0409C28.5169 19.6688 29.5055 19.5714 30.4592 19.7611C31.413 19.9508 32.289 20.4191 32.9766 21.1067C33.6642 21.7943 34.1325 22.6704 34.3222 23.6241C34.5119 24.5779 34.4146 25.5664 34.0424 26.4648C33.6703 27.3633 33.0401 28.1311 32.2316 28.6714C31.423 29.2116 30.4724 29.5 29.5 29.5C28.196 29.5 26.9455 28.982 26.0234 28.0599C25.1014 27.1379 24.5834 25.8873 24.5834 24.5833ZM46.4871 39.3333C44.2907 35.5764 40.9101 32.6541 36.875 31.0242C38.1267 29.6049 38.9423 27.8545 39.2239 25.9832C39.5055 24.1119 39.2411 22.199 38.4625 20.4742C37.6839 18.7494 36.4241 17.2859 34.8344 16.2593C33.2446 15.2327 31.3924 14.6867 29.5 14.6867C27.6076 14.6867 25.7554 15.2327 24.1657 16.2593C22.5759 17.2859 21.3162 18.7494 20.5375 20.4742C19.7589 22.199 19.4946 24.1119 19.7762 25.9832C20.0577 27.8545 20.8733 29.6049 22.125 31.0242C18.0899 32.6541 14.7094 35.5764 12.5129 39.3333C10.7625 36.3516 9.83758 32.9575 9.83335 29.5C9.83335 24.2841 11.9054 19.2818 15.5936 15.5936C19.2818 11.9053 24.2841 9.83332 29.5 9.83332C34.7159 9.83332 39.7182 11.9053 43.4065 15.5936C47.0947 19.2818 49.1667 24.2841 49.1667 29.5C49.1625 32.9575 48.2376 36.3516 46.4871 39.3333Z" fill="#B6B6B6"/>
</svg>
