<svg width="28" height="28" viewBox="0 0 28 28" fill="none" xmlns="http://www.w3.org/2000/svg">
<path d="M20.5493 18.1006C22.2438 15.7881 23.0027 12.9209 22.6743 10.0728C22.3458 7.22467 20.9543 4.60558 18.778 2.73952C16.6017 0.87346 13.8011 -0.101946 10.9366 0.00844302C8.07213 0.118832 5.35494 1.30688 3.32867 3.33489C1.30239 5.3629 0.116455 8.08133 0.00813113 10.9463C-0.100193 13.8113 0.87708 16.6115 2.74443 18.7868C4.61178 20.962 7.2315 22.3519 10.0795 22.6784C12.9274 23.0048 15.7936 22.2437 18.1046 20.5474H18.1029C18.1542 20.6174 18.2114 20.6845 18.2744 20.7486L25.0116 27.4868C25.3398 27.8152 25.7849 27.9998 26.2491 28C26.7133 28.0002 27.1586 27.8159 27.4869 27.4877C27.8153 27.1595 27.9998 26.7144 28 26.2501C28.0002 25.7858 27.8159 25.3405 27.4878 25.0121L20.7505 18.2739C20.688 18.2105 20.6207 18.1538 20.5493 18.1006ZM21.0008 11.3729C21.0008 12.637 20.7518 13.8888 20.2682 15.0566C19.7845 16.2245 19.0755 17.2857 18.1818 18.1795C17.2881 19.0734 16.227 19.7824 15.0593 20.2662C13.8916 20.7499 12.6401 20.9989 11.3761 20.9989C10.1122 20.9989 8.86067 20.7499 7.69295 20.2662C6.52524 19.7824 5.46423 19.0734 4.5705 18.1795C3.67677 17.2857 2.96782 16.2245 2.48414 15.0566C2.00045 13.8888 1.75151 12.637 1.75151 11.3729C1.75151 8.81996 2.76553 6.37155 4.5705 4.56633C6.37547 2.7611 8.82353 1.74694 11.3761 1.74694C13.9288 1.74694 16.3768 2.7611 18.1818 4.56633C19.9868 6.37155 21.0008 8.81996 21.0008 11.3729Z" fill="#9747FF"/>
</svg>
