<svg width="7" height="11" viewBox="0 0 7 11" fill="none" xmlns="http://www.w3.org/2000/svg">
<path d="M6.21209 4.81946L2.14876 0.75613C2.05967 0.666307 1.95367 0.595012 1.83689 0.546358C1.72011 0.497705 1.59485 0.472656 1.46834 0.472656C1.34183 0.472656 1.21657 0.497705 1.09979 0.546358C0.983005 0.595012 0.877012 0.666307 0.787923 0.75613C0.609432 0.935685 0.509247 1.17858 0.509247 1.43175C0.509247 1.68493 0.609432 1.92782 0.787923 2.10738L4.18042 5.49988L0.787923 8.89238C0.609432 9.07194 0.509247 9.31483 0.509247 9.56801C0.509247 9.82118 0.609432 10.0641 0.787923 10.2436C0.87747 10.3325 0.983668 10.4027 1.10043 10.4504C1.21719 10.4981 1.34222 10.5223 1.46834 10.5215C1.59446 10.5223 1.71949 10.4981 1.83625 10.4504C1.95301 10.4027 2.05921 10.3325 2.14876 10.2436L6.21209 6.1803C6.30191 6.09121 6.37321 5.98521 6.42186 5.86843C6.47051 5.75165 6.49556 5.62639 6.49556 5.49988C6.49556 5.37337 6.47051 5.24811 6.42186 5.13133C6.37321 5.01455 6.30191 4.90855 6.21209 4.81946Z" fill="black"/>
</svg>
