<svg width="30" height="30" viewBox="0 0 30 30" fill="none" xmlns="http://www.w3.org/2000/svg">
<g clip-path="url(#clip0_62_1860)">
<path d="M15 7.5C16.3875 7.5 17.5 6.375 17.5 5C17.5 4.525 17.375 4.0875 17.1375 3.7125L15 0L12.8625 3.7125C12.625 4.0875 12.5 4.525 12.5 5C12.5 6.375 13.625 7.5 15 7.5ZM20.75 19.9875L19.4125 18.65L18.0625 19.9875C16.4375 21.6125 13.5875 21.625 11.95 19.9875L10.6125 18.65L9.25 19.9875C8.4375 20.8 7.35 21.25 6.2 21.25C5.2875 21.25 4.45 20.9625 3.75 20.4875V26.25C3.75 26.9375 4.3125 27.5 5 27.5H25C25.6875 27.5 26.25 26.9375 26.25 26.25V20.4875C25.55 20.9625 24.7125 21.25 23.8 21.25C22.65 21.25 21.5625 20.8 20.75 19.9875ZM22.5 11.25H16.25V8.75H13.75V11.25H7.5C5.425 11.25 3.75 12.925 3.75 15V16.925C3.75 18.275 4.85 19.375 6.2 19.375C6.85 19.375 7.475 19.125 7.925 18.6625L10.6 16L13.2625 18.6625C14.1875 19.5875 15.8 19.5875 16.725 18.6625L19.4 16L22.0625 18.6625C22.525 19.125 23.1375 19.375 23.7875 19.375C25.1375 19.375 26.2375 18.275 26.2375 16.925V15C26.25 12.925 24.575 11.25 22.5 11.25Z" fill="#979797"/>
</g>
<defs>
<clipPath id="clip0_62_1860">
<rect width="30" height="30" fill="white"/>
</clipPath>
</defs>
</svg>
