<svg width="40" height="40" viewBox="0 0 40 40" fill="none" xmlns="http://www.w3.org/2000/svg">
<path d="M11.0333 21.8C10.8264 21.8748 10.6386 21.9942 10.4831 22.1498C10.3275 22.3053 10.2081 22.4931 10.1333 22.7C10.012 23.0028 9.98234 23.3346 10.0479 23.6542C10.1135 23.9738 10.2714 24.2671 10.5021 24.4978C10.7327 24.7285 11.0261 24.8864 11.3457 24.952C11.6652 25.0175 11.997 24.9879 12.2999 24.8666C12.5019 24.7822 12.6879 24.6638 12.8499 24.5166C12.9971 24.3546 13.1155 24.1686 13.1999 23.9666C13.2932 23.7688 13.3389 23.5519 13.3333 23.3333C13.3271 22.892 13.1545 22.4693 12.8499 22.15C12.6155 21.9187 12.3179 21.762 11.9946 21.6997C11.6713 21.6375 11.3368 21.6723 11.0333 21.8ZM32.9333 15.1333L30.6666 8.41662C30.3208 7.43867 29.6795 6.59246 28.8314 5.99522C27.9833 5.39799 26.9705 5.07929 25.9333 5.08329H14.0666C13.0293 5.07929 12.0165 5.39799 11.1684 5.99522C10.3203 6.59246 9.679 7.43867 9.33325 8.41662L7.06659 15.1833C6.00046 15.4625 5.05645 16.0861 4.3813 16.9571C3.70616 17.8282 3.33771 18.8979 3.33325 20V26.6666C3.33615 27.6982 3.65805 28.7036 4.25482 29.5451C4.85158 30.3865 5.694 31.0228 6.66659 31.3666V33.3333C6.66659 33.7753 6.84218 34.1992 7.15474 34.5118C7.4673 34.8244 7.89122 35 8.33325 35C8.77528 35 9.1992 34.8244 9.51176 34.5118C9.82432 34.1992 9.99992 33.7753 9.99992 33.3333V31.6666H29.9999V33.3333C29.9999 33.7753 30.1755 34.1992 30.4881 34.5118C30.8006 34.8244 31.2246 35 31.6666 35C32.1086 35 32.5325 34.8244 32.8451 34.5118C33.1577 34.1992 33.3333 33.7753 33.3333 33.3333V31.3666C34.3058 31.0228 35.1483 30.3865 35.745 29.5451C36.3418 28.7036 36.6637 27.6982 36.6666 26.6666V20C36.6621 18.8979 36.2937 17.8282 35.6185 16.9571C34.9434 16.0861 33.9994 15.4625 32.9333 15.1833V15.1333ZM12.4833 9.46662C12.5951 9.13559 12.8081 8.84806 13.0922 8.64469C13.3763 8.44132 13.7172 8.33239 14.0666 8.33329H25.9333C26.2967 8.31432 26.6564 8.41483 26.9573 8.61948C27.2583 8.82413 27.484 9.12165 27.5999 9.46662L29.3499 15H10.6499L12.4833 9.46662ZM33.3333 26.6666C33.3333 27.1087 33.1577 27.5326 32.8451 27.8451C32.5325 28.1577 32.1086 28.3333 31.6666 28.3333H8.33325C7.89122 28.3333 7.4673 28.1577 7.15474 27.8451C6.84218 27.5326 6.66659 27.1087 6.66659 26.6666V20C6.66659 19.5579 6.84218 19.134 7.15474 18.8214C7.4673 18.5089 7.89122 18.3333 8.33325 18.3333H31.6666C32.1086 18.3333 32.5325 18.5089 32.8451 18.8214C33.1577 19.134 33.3333 19.5579 33.3333 20V26.6666ZM27.6999 21.8C27.4931 21.8748 27.3053 21.9942 27.1497 22.1498C26.9942 22.3053 26.8748 22.4931 26.7999 22.7C26.6787 23.0028 26.649 23.3346 26.7146 23.6542C26.7801 23.9738 26.938 24.2671 27.1687 24.4978C27.3994 24.7285 27.6927 24.8864 28.0123 24.952C28.3319 25.0175 28.6637 24.9879 28.9666 24.8666C29.1734 24.7918 29.3612 24.6723 29.5168 24.5168C29.6723 24.3613 29.7917 24.1735 29.8666 23.9666C29.9599 23.7688 30.0056 23.5519 29.9999 23.3333C29.9938 22.892 29.8211 22.4693 29.5166 22.15C29.2822 21.9187 28.9846 21.762 28.6613 21.6997C28.338 21.6375 28.0034 21.6723 27.6999 21.8ZM21.6666 21.6666H18.3333C17.8912 21.6666 17.4673 21.8422 17.1547 22.1548C16.8422 22.4673 16.6666 22.8913 16.6666 23.3333C16.6666 23.7753 16.8422 24.1992 17.1547 24.5118C17.4673 24.8244 17.8912 25 18.3333 25H21.6666C22.1086 25 22.5325 24.8244 22.8451 24.5118C23.1577 24.1992 23.3333 23.7753 23.3333 23.3333C23.3333 22.8913 23.1577 22.4673 22.8451 22.1548C22.5325 21.8422 22.1086 21.6666 21.6666 21.6666Z" fill="#B6B6B6"/>
</svg>
