<svg width="28" height="28" viewBox="0 0 28 28" fill="none" xmlns="http://www.w3.org/2000/svg">
<path d="M10.5 22.75C10.5 24.6838 8.54 26.25 6.125 26.25C3.71 26.25 1.75 24.6838 1.75 22.75C1.75 20.8162 3.71 19.25 6.125 19.25C8.54 19.25 10.5 20.818 10.5 22.75ZM26.25 19.25C26.25 21.1838 24.29 22.75 21.875 22.75C19.46 22.75 17.5 21.1838 17.5 19.25C17.5 17.3162 19.46 15.75 21.875 15.75C24.29 15.75 26.25 17.3162 26.25 19.25Z" fill="#B6B6B6"/>
<path fill-rule="evenodd" clip-rule="evenodd" d="M24.5 19.25V3.5H26.25V19.25H24.5ZM10.5 5.25V22.75H8.75V5.25H10.5Z" fill="#B6B6B6"/>
<path d="M8.75 5.08374C8.74999 4.6499 8.91113 4.23153 9.20216 3.90979C9.49318 3.58805 9.89334 3.38587 10.325 3.34249L24.325 1.94249C24.5683 1.91803 24.8141 1.94485 25.0465 2.02122C25.2788 2.0976 25.4926 2.22182 25.6739 2.38589C25.8553 2.54995 26.0003 2.75022 26.0995 2.97376C26.1987 3.19731 26.25 3.43916 26.25 3.68374V5.24999L8.75 6.99999V5.08374Z" fill="#B6B6B6"/>
</svg>
