<svg width="19" height="19" viewBox="0 0 19 19" fill="none" xmlns="http://www.w3.org/2000/svg">
<path d="M13.9442 12.2826C15.094 10.7133 15.609 8.76779 15.3861 6.83512C15.1632 4.90245 14.219 3.12521 12.7422 1.85896C11.2654 0.592705 9.36504 -0.0691779 7.42128 0.00572919C5.47752 0.0806363 3.63371 0.886809 2.25874 2.26296C0.883763 3.63911 0.0790232 5.48376 0.00551755 7.42784C-0.0679881 9.37193 0.595161 11.2721 1.86229 12.7482C3.12942 14.2242 4.90709 15.1674 6.83964 15.3889C8.7722 15.6104 10.7171 15.094 12.2853 13.9429H12.2841C12.3189 13.9904 12.3577 14.0359 12.4005 14.0794L16.9722 18.6518C17.1948 18.8746 17.4969 18.9999 17.8119 19C18.1269 19.0001 18.429 18.8751 18.6518 18.6524C18.8746 18.4297 18.9999 18.1276 19 17.8126C19.0001 17.4975 18.8751 17.1953 18.6524 16.9725L14.0807 12.4001C14.0383 12.3571 13.9926 12.3186 13.9442 12.2826ZM14.2505 7.71735C14.2505 8.57513 14.0816 9.42452 13.7534 10.217C13.4252 11.0095 12.9441 11.7296 12.3376 12.3361C11.7312 12.9427 11.0112 13.4238 10.2188 13.7521C9.42646 14.0803 8.57719 14.2493 7.71953 14.2493C6.86186 14.2493 6.0126 14.0803 5.22022 13.7521C4.42784 13.4238 3.70787 12.9427 3.10141 12.3361C2.49495 11.7296 2.01388 11.0095 1.68566 10.217C1.35745 9.42452 1.18852 8.57513 1.18852 7.71735C1.18852 5.98497 1.87661 4.32355 3.10141 3.09858C4.32621 1.87361 5.9874 1.18542 7.71953 1.18542C9.45166 1.18542 11.1128 1.87361 12.3376 3.09858C13.5624 4.32355 14.2505 5.98497 14.2505 7.71735Z" fill="black"/>
</svg>
