<svg width="40" height="40" viewBox="0 0 40 40" fill="none" xmlns="http://www.w3.org/2000/svg">
<path d="M23.75 31.25C23.7496 31.9374 23.5603 32.6115 23.2028 33.1986C22.8452 33.7857 22.3332 34.2632 21.7226 34.579C21.112 34.8948 20.4263 35.0366 19.7406 34.989C19.0548 34.9415 18.3953 34.7064 17.8341 34.3093C17.273 33.9123 16.8317 33.3687 16.5586 32.7378C16.2855 32.107 16.1911 31.4132 16.2856 30.7324C16.3802 30.0515 16.66 29.4097 17.0946 28.8771C17.5293 28.3445 18.1019 27.9416 18.75 27.7125V16.25C18.75 15.9185 18.8817 15.6005 19.1161 15.3661C19.3505 15.1317 19.6685 15 20 15C20.3315 15 20.6495 15.1317 20.8839 15.3661C21.1183 15.6005 21.25 15.9185 21.25 16.25V27.7125C21.9814 27.9711 22.6147 28.4502 23.0624 29.0838C23.5102 29.7173 23.7504 30.4742 23.75 31.25Z" fill="#B6B6B6"/>
<path d="M13.75 6.25C13.75 4.5924 14.4085 3.00268 15.5806 1.83058C16.7527 0.65848 18.3424 0 20 0C21.6576 0 23.2473 0.65848 24.4194 1.83058C25.5915 3.00268 26.25 4.5924 26.25 6.25V25.125C27.4558 26.3557 28.2715 27.915 28.5947 29.6074C28.9179 31.2998 28.7342 33.05 28.0668 34.6384C27.3993 36.2268 26.2777 37.5829 24.8427 38.5365C23.4076 39.49 21.723 39.9987 20 39.9987C18.277 39.9987 16.5924 39.49 15.1573 38.5365C13.7223 37.5829 12.6007 36.2268 11.9332 34.6384C11.2658 33.05 11.0821 31.2998 11.4053 29.6074C11.7285 27.915 12.5442 26.3557 13.75 25.125V6.25ZM20 2.5C19.0054 2.5 18.0516 2.89509 17.3484 3.59835C16.6451 4.30161 16.25 5.25544 16.25 6.25V26.2175L15.8325 26.5925C14.8889 27.4363 14.2238 28.5467 13.9252 29.7768C13.6265 31.0069 13.7085 32.2987 14.1601 33.4812C14.6117 34.6637 15.4117 35.6813 16.4543 36.3991C17.4969 37.117 18.7329 37.5013 19.9988 37.5013C21.2646 37.5013 22.5006 37.117 23.5432 36.3991C24.5858 35.6813 25.3858 34.6637 25.8374 33.4812C26.2891 32.2987 26.371 31.0069 26.0723 29.7768C25.7737 28.5467 25.1086 27.4363 24.165 26.5925L23.75 26.2175V6.25C23.75 5.25544 23.3549 4.30161 22.6517 3.59835C21.9484 2.89509 20.9946 2.5 20 2.5Z" fill="#B6B6B6"/>
</svg>
