<svg width="38" height="38" viewBox="0 0 38 38" fill="none" xmlns="http://www.w3.org/2000/svg">
<g clip-path="url(#clip0_47_1345)">
<path d="M19 26.125C19.315 26.125 19.617 25.9999 19.8397 25.7772C20.0624 25.5545 20.1875 25.2525 20.1875 24.9375V15.9292L22.9093 18.6533C23.1323 18.8763 23.4347 19.0015 23.75 19.0015C24.0654 19.0015 24.3678 18.8763 24.5908 18.6533C24.8138 18.4303 24.939 18.1279 24.939 17.8125C24.939 17.4972 24.8138 17.1948 24.5908 16.9718L19.8408 12.2218C19.7305 12.1112 19.5994 12.0235 19.4552 11.9636C19.3109 11.9037 19.1562 11.8729 19 11.8729C18.8438 11.8729 18.6892 11.9037 18.5449 11.9636C18.4006 12.0235 18.2696 12.1112 18.1593 12.2218L13.4093 16.9718C13.1863 17.1948 13.061 17.4972 13.061 17.8125C13.061 18.1279 13.1863 18.4303 13.4093 18.6533C13.6323 18.8763 13.9347 19.0015 14.25 19.0015C14.5654 19.0015 14.8678 18.8763 15.0908 18.6533L17.8125 15.9292V24.9375C17.8125 25.2525 17.9376 25.5545 18.1603 25.7772C18.383 25.9999 18.6851 26.125 19 26.125Z" fill="#B6B6B6"/>
<path d="M9.5 0C8.24022 0 7.03204 0.500445 6.14124 1.39124C5.25044 2.28204 4.75 3.49022 4.75 4.75V33.25C4.75 34.5098 5.25044 35.718 6.14124 36.6088C7.03204 37.4996 8.24022 38 9.5 38H28.5C29.7598 38 30.968 37.4996 31.8588 36.6088C32.7496 35.718 33.25 34.5098 33.25 33.25V4.75C33.25 3.49022 32.7496 2.28204 31.8588 1.39124C30.968 0.500445 29.7598 0 28.5 0L9.5 0ZM9.5 2.375H28.5C29.1299 2.375 29.734 2.62522 30.1794 3.07062C30.6248 3.51602 30.875 4.12011 30.875 4.75V33.25C30.875 33.8799 30.6248 34.484 30.1794 34.9294C29.734 35.3748 29.1299 35.625 28.5 35.625H9.5C8.87011 35.625 8.26602 35.3748 7.82062 34.9294C7.37522 34.484 7.125 33.8799 7.125 33.25V4.75C7.125 4.12011 7.37522 3.51602 7.82062 3.07062C8.26602 2.62522 8.87011 2.375 9.5 2.375Z" fill="#B6B6B6"/>
</g>
<defs>
<clipPath id="clip0_47_1345">
<rect width="38" height="38" fill="white"/>
</clipPath>
</defs>
</svg>
